<mxfile host="app.diagrams.net" modified="2023-05-08T13:55:40.409Z" agent="Mozilla/5.0 (Windows NT 10.0; Win64; x64) AppleWebKit/537.36 (KHTML, like Gecko) Chrome/111.0.0.0 Safari/537.36 OPR/97.0.0.0" version="21.2.9" etag="XXK4o4eLu6SlVxXYNdG0" type="github">
  <diagram name="PÃ¡gina-1" id="aeVE_0QP12hosvdcAEiu">
    <mxGraphModel>
      <root>
        <mxCell id="0" />
        <mxCell id="1" parent="0" />
      </root>
    </mxGraphModel>
  </diagram>
</mxfile>
